<svg width="36" height="37" viewBox="0 0 36 37" fill="none" xmlns="http://www.w3.org/2000/svg">
<path d="M25.5 3.39551H10.5C6.35786 3.39551 3 6.77091 3 10.9347V26.013C3 30.1768 6.35786 33.5522 10.5 33.5522H25.5C29.6421 33.5522 33 30.1768 33 26.013V10.9347C33 6.77091 29.6421 3.39551 25.5 3.39551Z" stroke="white" stroke-width="2" stroke-linecap="round" stroke-linejoin="round"/>
<path d="M24 17.5236C24.1852 18.7785 23.9719 20.0601 23.3907 21.1861C22.8094 22.3122 21.8898 23.2253 20.7625 23.7957C19.6352 24.366 18.3577 24.5646 17.1117 24.363C15.8657 24.1615 14.7147 23.5701 13.8223 22.6731C12.9299 21.776 12.3416 20.619 12.1412 19.3665C11.9407 18.114 12.1381 16.8298 12.7055 15.6967C13.2729 14.5635 14.1813 13.639 15.3015 13.0547C16.4217 12.4705 17.6967 12.2561 18.945 12.4422C20.2184 12.632 21.3973 13.2285 22.3076 14.1435C23.2179 15.0585 23.8112 16.2436 24 17.5236Z" stroke="white" stroke-width="2" stroke-linecap="round" stroke-linejoin="round"/>
<path d="M26.25 10.1807H26.265" stroke="white" stroke-width="2" stroke-linecap="round" stroke-linejoin="round"/>
</svg>
