<svg width="37" height="37" viewBox="0 0 37 37" fill="none" xmlns="http://www.w3.org/2000/svg">
<path d="M25.75 3.39551H10.75C6.60786 3.39551 3.25 6.77091 3.25 10.9347V26.013C3.25 30.1768 6.60786 33.5522 10.75 33.5522H25.75C29.8921 33.5522 33.25 30.1768 33.25 26.013V10.9347C33.25 6.77091 29.8921 3.39551 25.75 3.39551Z" stroke="white" stroke-width="2" stroke-linecap="round" stroke-linejoin="round"/>
<path d="M18.0763 24.4572C18.0702 24.4574 18.0634 24.4576 18.0561 24.4578C18.0273 24.4587 17.9895 24.4593 17.9432 24.4591C17.8507 24.4586 17.7243 24.4547 17.5694 24.4421C17.2602 24.4169 16.8342 24.3567 16.3368 24.2182C15.338 23.94 14.0536 23.3459 12.8629 22.0982C11.6186 20.7976 10.4916 18.9109 9.69497 17.4099C9.29065 16.6481 8.96008 15.9637 8.73036 15.4694C8.61538 15.222 8.52534 15.0214 8.46364 14.8818C8.43279 14.812 8.409 14.7573 8.39269 14.7196L8.3739 14.6759L8.36881 14.664L8.36736 14.6606L8.36691 14.6595L8.36675 14.6591C8.36669 14.659 8.36664 14.6589 9.28752 14.269M18.0763 24.4572L26.2904 13.6226C26.2904 13.6226 27.1001 13.5107 27.2373 13.8988C27.3746 14.287 26.9327 15.1931 25.8251 16.6779C24.7736 18.0895 24.2626 18.6079 24.3111 19.0672C24.3465 19.4016 24.6785 19.7046 25.3146 20.2982C26.6389 21.5407 26.9961 22.1953 27.0823 22.3532C27.0896 22.3665 27.0949 22.3762 27.0987 22.3826C27.6957 23.3784 26.4358 23.4572 26.4358 23.4572M18.0763 24.4572H19.1318H19.1916L19.251 24.4501C19.6358 24.4039 19.9968 24.2412 20.2864 23.9846L20.3703 23.9103L20.4356 23.8192C20.6597 23.507 20.7771 23.1311 20.7713 22.7476M18.0763 24.4572L20.7881 22.454M9.28752 14.269C8.35079 14.6191 8.3507 14.6188 8.35061 14.6186L8.35043 14.6181L8.35006 14.6171L8.34929 14.6151L8.34761 14.6105L8.34373 14.5997C8.34092 14.5918 8.33767 14.5824 8.33409 14.5716C8.32698 14.5503 8.31834 14.523 8.30923 14.4908C8.29164 14.4288 8.26919 14.3382 8.25441 14.2314C8.23642 14.1014 8.17171 13.5924 8.53111 13.1649C8.83768 12.7989 9.27582 12.7027 9.40905 12.6748C9.51194 12.6532 9.60299 12.6419 9.66738 12.6357C9.70041 12.6325 9.72856 12.6305 9.75031 12.6292L9.7785 12.6278L9.78899 12.6274L9.7933 12.6273L9.79521 12.6272L9.79611 12.6272L9.79654 12.6272C9.79675 12.6272 9.79696 12.6271 9.8255 13.6267L9.79696 12.6271L9.8083 12.6268L9.81964 12.6268L12.4108 12.6116L12.5091 12.611L12.6056 12.6296C12.8829 12.6829 13.1467 12.791 13.3818 12.9472L13.4286 12.9783L13.4717 13.0145C13.6911 13.1989 13.8631 13.4328 13.9739 13.6965L13.9774 13.7047L13.9807 13.7131C14.2407 14.364 14.542 14.9973 14.8829 15.6091C15.0589 15.9149 15.2138 16.171 15.3499 16.3845C15.3513 16.2203 15.3488 16.0666 15.345 15.9379C15.3419 15.8338 15.3381 15.7482 15.3351 15.6896C15.3336 15.6603 15.3323 15.6379 15.3315 15.6233L15.3305 15.6076L15.3303 15.6047L15.3303 15.6045L15.3303 15.6045L15.3303 15.6043L15.3303 15.6042L15.328 15.5709V15.5391L15.328 15.5379L15.3277 15.5219C15.3274 15.5059 15.3266 15.4803 15.325 15.4475C15.3216 15.3808 15.315 15.2901 15.3022 15.1931C15.2891 15.0936 15.2718 15.0041 15.2516 14.9344C15.25 14.9288 15.2484 14.9236 15.2469 14.9187C15.2299 14.9127 15.2103 14.9068 15.1889 14.9016C15.1609 14.8948 15.1355 14.8905 15.1168 14.8879C14.8906 14.8564 14.5699 14.7332 14.3651 14.4003C14.1793 14.0984 14.2013 13.8011 14.2267 13.6573C14.2751 13.3829 14.4179 13.1796 14.486 13.0894C14.6534 12.8679 14.9091 12.641 15.2121 12.4914C15.6212 12.2885 16.1004 12.2175 16.5148 12.1849C16.9486 12.1507 17.4355 12.1517 17.9139 12.1572C18.7319 12.1647 19.026 12.2188 19.4054 12.3112C19.7929 12.4053 20.1845 12.605 20.4577 13.0004C20.7057 13.3592 20.7699 13.7601 20.7922 14.0652C20.8149 14.3749 20.8013 14.7329 20.7874 15.0812C20.7863 15.1094 20.7852 15.1378 20.784 15.1665C20.7713 15.4835 20.7573 15.8304 20.7552 16.2261C20.8664 16.0525 20.989 15.8527 21.1237 15.6228C21.4837 14.9848 21.7962 14.3207 22.0587 13.6361L22.071 13.6041L22.0854 13.573C22.2097 13.3055 22.3991 13.0729 22.6369 12.8971L22.7035 12.8479L22.7774 12.8103C23.0388 12.6771 23.3312 12.618 23.6232 12.6389L26.2316 12.6229C26.2659 12.6195 26.3104 12.6157 26.3624 12.6128C26.4716 12.6066 26.6302 12.6031 26.8055 12.6195C26.971 12.635 27.2114 12.6732 27.4517 12.7845C27.7009 12.8999 28.0275 13.1339 28.1801 13.5655C28.3071 13.9244 28.2624 14.2751 28.2022 14.5235C28.1382 14.7876 28.026 15.0589 27.8913 15.3266C27.6212 15.8634 27.1943 16.5149 26.6267 17.2758M9.28752 14.269L8.36664 14.6589L8.35829 14.6391L8.35079 14.6191L9.28752 14.269ZM26.6267 17.2758L25.8254 16.6781L26.6271 17.2753C26.6269 17.2755 26.6268 17.2757 26.6267 17.2758ZM26.6267 17.2758C26.3691 17.6217 26.167 17.8844 25.9955 18.1075C25.8353 18.3158 25.7017 18.4896 25.574 18.6643C25.4753 18.7996 25.4114 18.8957 25.3704 18.9615M25.3704 18.9615C25.3408 18.9289 25.3162 18.8997 25.2953 18.8725C25.2832 18.8566 25.2782 18.8496 25.2776 18.8499C25.2753 18.8513 25.3286 18.9489 25.3009 19.0804C25.3003 19.0833 25.2999 19.085 25.3001 19.085C25.301 19.0854 25.3142 19.0519 25.3704 18.9615ZM25.3704 18.9615C25.4844 19.0873 25.6715 19.2635 25.9969 19.5672L25.9988 19.5689C26.7498 20.2735 27.2227 20.8153 27.5225 21.2097C27.8253 21.6079 27.9609 21.8758 27.9538 21.8641L27.9564 21.8684C28.1805 22.2422 28.3352 22.7041 28.2212 23.1963C28.1051 23.6974 27.7657 23.9948 27.5056 24.1509C27.251 24.3036 26.9912 24.3737 26.8297 24.4078C26.7425 24.4262 26.667 24.4375 26.611 24.4444C26.5827 24.4478 26.5587 24.4503 26.5397 24.452L26.515 24.4541L26.5056 24.4547L26.5017 24.455L26.4999 24.4551L26.499 24.4552C26.4986 24.4552 26.4982 24.4552 26.4358 23.4572M26.4358 23.4572L26.4982 24.4552L26.4739 24.4568L26.4496 24.4571L24.1023 24.4894C24.0666 24.4933 24.0255 24.4965 23.9793 24.4984C23.8617 24.5031 23.7116 24.4987 23.5358 24.4716C23.1797 24.4166 22.7378 24.2712 22.266 23.9474L22.2637 23.9458C21.9437 23.7249 21.6615 23.4397 21.4318 23.1885C21.3064 23.0513 21.1532 22.8741 21.0181 22.7178C20.9323 22.6185 20.8538 22.5277 20.7941 22.4607C20.7921 22.4585 20.7901 22.4562 20.7881 22.454M26.4358 23.4572L24.03 23.4903C24.03 23.4903 23.5181 23.5939 22.8319 23.1229M22.8319 23.1229C22.4764 22.8775 22.1305 22.4763 21.8007 22.0939C21.2954 21.5078 20.828 20.9657 20.4219 21.0952C19.7508 21.3093 19.7714 22.7596 19.7714 22.7596M22.8319 23.1229L19.6232 23.2362C19.7226 23.0977 19.7746 22.9305 19.7714 22.7596M22.8319 23.1229L20.7881 22.454M19.7714 22.7596L20.7712 22.741C20.7713 22.7427 20.7713 22.7443 20.7713 22.7459M19.7714 22.7596C20.7713 22.7455 20.7713 22.7457 20.7713 22.7459M20.7713 22.7459L20.7713 22.7463L20.7713 22.747L20.7713 22.7481L20.7713 22.7476M20.7713 22.7459C20.7713 22.7465 20.7713 22.747 20.7713 22.7476M20.7713 22.7476L20.7713 22.7445C20.7713 22.7393 20.7714 22.7294 20.7716 22.7156C20.7722 22.6877 20.7735 22.6445 20.7768 22.591C20.7794 22.5489 20.783 22.5027 20.7881 22.454M20.3511 22.034C20.351 22.0339 20.3536 22.0351 20.359 22.0385C20.3538 22.0359 20.3511 22.0342 20.3511 22.034ZM19.9428 17.2676C19.9428 17.2676 19.9436 17.267 19.9453 17.2659C19.9436 17.2671 19.9428 17.2676 19.9428 17.2676Z" stroke="white" stroke-width="2" stroke-miterlimit="10"/>
</svg>
